<svg version="1.2" xmlns="http://www.w3.org/2000/svg" viewBox="0 0 640 640" width="640" height="640">
	<style>
		.s0 { fill: #ffffff } 
	</style>
	<path class="s0" d="m259.1 73.5c3-14.8 16.1-25.5 31.3-25.5h59.8c15.2 0 28.3 10.7 31.3 25.5l14.5 70c14.1 6 27.3 13.7 39.3 22.8l67.8-22.5c14.4-4.8 30.2 1.2 37.8 14.4l29.9 51.8c7.6 13.2 4.9 29.8-6.5 39.9l-53.3 47.4c0.9 7.4 1.3 15 1.3 22.7 0 7.7-0.5 15.3-1.3 22.7l53.4 47.5c11.4 10.1 14 26.8 6.5 39.9l-29.9 51.8c-7.6 13.1-23.4 19.2-37.8 14.4l-67.8-22.5c-12.1 9.1-25.3 16.7-39.3 22.8l-14.4 69.9c-3.1 14.9-16.2 25.5-31.3 25.5h-59.8c-15.2 0-28.3-10.7-31.3-25.5l-14.4-69.9c-14.1-6-27.2-13.7-39.3-22.8l-68.1 22.5c-14.4 4.8-30.2-1.2-37.8-14.4l-29.9-51.8c-7.6-13.2-4.9-29.8 6.5-39.9l53.4-47.5c-0.9-7.4-1.3-15-1.3-22.7 0-7.7 0.5-15.3 1.3-22.7l-53.4-47.5c-11.4-10.1-14-26.8-6.5-39.9l29.9-51.8c7.6-13.2 23.4-19.2 37.8-14.4l67.8 22.5c12.1-9.1 25.3-16.7 39.3-22.8zm61.2 326.5c44.2-0.2 79.9-36.1 79.7-80.3-0.2-44.2-36.1-79.9-80.3-79.7-44.2 0.2-79.9 36.1-79.7 80.3 0.2 44.2 36.1 79.9 80.3 79.7z"/>
</svg>