<?xml version="1.0" encoding="UTF-8" standalone="no"?>
<svg
   viewBox="0 0 640 640"
   version="1.1"
   id="svg1"
   sodipodi:docname="deadclock_icon.svg"
   inkscape:version="1.4.2 (f4327f4, 2025-05-13)"
   inkscape:export-filename="deadclock_icon.png"
   inkscape:export-xdpi="76.800003"
   inkscape:export-ydpi="76.800003"
   xmlns:inkscape="http://www.inkscape.org/namespaces/inkscape"
   xmlns:sodipodi="http://sodipodi.sourceforge.net/DTD/sodipodi-0.dtd"
   xmlns:xlink="http://www.w3.org/1999/xlink"
   xmlns="http://www.w3.org/2000/svg"
   xmlns:svg="http://www.w3.org/2000/svg">
  <defs
     id="defs1">
    <linearGradient
       id="linearGradient4"
       inkscape:collect="always">
      <stop
         style="stop-color:#d0c0a0;stop-opacity:1;"
         offset="0"
         id="stop4" />
      <stop
         style="stop-color:#a88b5c;stop-opacity:1;"
         offset="1"
         id="stop5" />
    </linearGradient>
    <linearGradient
       inkscape:collect="always"
       xlink:href="#linearGradient4"
       id="linearGradient5"
       x1="320"
       y1="0"
       x2="320"
       y2="640"
       gradientUnits="userSpaceOnUse" />
    <filter
       style="color-interpolation-filters:sRGB;"
       inkscape:label="Drop Shadow"
       id="filter15"
       x="-0.03475814"
       y="-0.034758187"
       width="1.0695163"
       height="1.0695164">
      <feFlood
         result="flood"
         in="SourceGraphic"
         flood-opacity="0.498039"
         flood-color="rgb(0,0,0)"
         id="feFlood14" />
      <feGaussianBlur
         result="blur"
         in="SourceGraphic"
         stdDeviation="7.902736"
         id="feGaussianBlur14" />
      <feOffset
         result="offset"
         in="blur"
         dx="0.000000"
         dy="0.000000"
         id="feOffset14" />
      <feComposite
         result="comp1"
         operator="in"
         in="flood"
         in2="offset"
         id="feComposite14" />
      <feComposite
         result="comp2"
         operator="over"
         in="SourceGraphic"
         in2="comp1"
         id="feComposite15" />
    </filter>
  </defs>
  <sodipodi:namedview
     id="namedview1"
     pagecolor="#ffffff"
     bordercolor="#000000"
     borderopacity="0.25"
     inkscape:showpageshadow="2"
     inkscape:pageopacity="0.0"
     inkscape:pagecheckerboard="0"
     inkscape:deskcolor="#d1d1d1"
     inkscape:zoom="0.45585938"
     inkscape:cx="132.71637"
     inkscape:cy="411.31105"
     inkscape:window-width="2560"
     inkscape:window-height="1369"
     inkscape:window-x="-8"
     inkscape:window-y="-8"
     inkscape:window-maximized="1"
     inkscape:current-layer="svg1" />
  <!--!Font Awesome Free 7.1.0 by @fontawesome - https://fontawesome.com License - https://fontawesome.com/license/free Copyright 2025 Fonticons, Inc.-->
  <rect
     style="fill:url(#linearGradient5);fill-opacity:1;stroke:#000000;stroke-width:0"
     id="rect4"
     width="640"
     height="640"
     x="0"
     y="0"
     ry="84.455872" />
  <path
     id="path1"
     style="display:inline;stroke-width:0.478343;filter:url(#filter15)"
     d="m 148.62468,47.163604 c -56.059342,0 -101.461013,45.397154 -101.461013,101.451016 0,14.06675 2.877571,27.49464 8.099829,39.74978 4.689375,11.18945 19.610112,10.44354 26.537597,0.42631 l 0.106576,-0.10658 c 4.049915,-5.86115 8.312982,-11.50915 12.789203,-17.0506 3.730185,-4.68892 4.795951,-10.86974 4.049915,-16.83746 -0.31973,-2.02476 -0.426307,-4.1567 -0.426307,-6.28802 0,-27.70723 22.48768,-50.299206 50.3042,-50.299206 5.32883,0 10.33794,0.852759 15.13389,2.344686 5.64856,1.81163 12.04317,1.9181 17.26542,-0.959189 6.18145,-3.410122 12.46948,-6.50147 18.97065,-9.485325 C 211.07862,85.1004 214.59565,70.608155 204.36429,63.894479 188.37778,53.344417 169.19398,47.163604 148.62468,47.163604 Z m 342.75064,0.106577 c -20.5693,0 -39.7531,6.180813 -55.73961,16.730875 -10.23136,6.713677 -6.71433,21.205921 4.36965,26.214536 6.3946,2.87729 12.7892,6.075204 18.97065,9.485326 5.22225,2.877292 11.51028,2.770812 17.26542,0.959192 l 0.10658,0.10657 c 4.79595,-1.491923 9.91163,-2.344682 15.13389,-2.344682 27.70994,0 50.3042,22.485402 50.3042,50.299202 0,2.13132 -0.21316,4.26326 -0.42631,6.28802 -0.74604,5.96771 0.31973,12.14854 4.04991,16.83746 4.47623,5.54144 8.73929,11.18946 12.78921,17.05061 6.92748,10.01722 21.74164,10.76313 26.53759,-0.42631 5.22226,-12.25514 8.09983,-25.68303 8.09983,-39.74978 0,-56.053867 -45.40167,-101.451019 -101.46101,-101.451019 z M 320,115.36603 c -131.83537,0 -238.731791,106.88598 -238.731791,238.70847 0,56.69326 19.823261,108.80383 52.862041,149.83185 l -45.295096,45.29176 c -10.018209,9.91066 -9.911632,26.10727 0,36.1245 9.911633,10.01723 26.111286,10.01723 36.129496,0 l 45.2951,-45.2901 C 211.1852,572.9615 263.3012,592.78298 320,592.78298 c 56.6988,0 108.8148,-19.82148 149.74025,-52.75047 l 0.10658,-0.10657 45.29509,45.2901 c 9.91164,10.01723 26.11129,9.91066 36.1295,0 10.01821,-9.91066 10.01821,-26.10728 0,-36.12451 L 505.97633,503.79977 C 538.90853,462.87832 558.73179,410.76776 558.73179,354.0745 558.73179,222.25201 451.83537,115.36603 320,115.36603 Z m -2.66275,29.07212 -1.03246,105.37438 c -28.65666,0.84922 -52.95419,11.3688 -72.58872,25.51845 l -71.97924,-70.58374 a 212.48482,212.48482 0 0 1 145.60042,-60.30909 z m 5.43208,0 a 212.48482,212.48482 0 0 1 145.60041,60.30909 l -71.99089,70.5954 C 376.74628,261.20693 352.453,250.66382 323.80179,249.81253 Z m -154.87426,64.15084 69.86936,71.24985 c -3.43991,2.73436 -6.72093,5.57229 -9.84003,8.47284 -18.88134,17.54997 -56.70452,54.29107 -68.08586,65.36649 l -52.25421,0.51124 a 212.48482,212.48482 0 0 1 60.31074,-145.60042 z m 304.31643,0 a 212.48482,212.48482 0 0 1 60.31075,145.60208 l -52.24922,-0.51124 c -11.37255,-11.07655 -49.20552,-47.85482 -68.09085,-65.36815 -3.12125,-2.89593 -6.40419,-5.73174 -9.84669,-8.46451 z m -152.15821,79.43628 c 38.02834,0 68.88184,30.85183 68.88184,68.88018 0,38.02834 -30.8535,68.88185 -68.88184,68.88185 -38.02834,0 -68.88185,-30.85351 -68.88185,-68.88185 0,-38.02835 30.85351,-68.88018 68.88185,-68.88018 z m 0,26.2495 a 44.528315,43.18211 0 0 0 -44.52907,43.18188 44.528315,43.18211 0 0 0 44.52907,43.18187 44.528315,43.18211 0 0 0 44.52907,-43.18187 44.528315,43.18211 0 0 0 -44.52907,-43.18188 z m -212.46896,45.34671 52.25089,0.51124 c 11.37414,11.07811 49.20457,47.8555 68.08918,65.36815 3.12175,2.8964 6.40525,5.72963 9.84835,8.46285 l -69.87768,71.25985 A 212.48482,212.48482 0 0 1 107.58433,359.62148 Z m 424.93792,0.002 A 212.48482,212.48482 0 0 1 472.2115,505.22357 l -69.86935,-71.25152 c 3.44014,-2.73457 6.72073,-5.57044 9.84003,-8.47118 18.88062,-17.54929 56.70126,-54.28951 68.08418,-65.36648 z m -288.79452,78.84676 c 19.63244,14.1358 43.92618,24.67877 72.57706,25.53012 l 1.03246,105.37437 a 212.48482,212.48482 0 0 1 -145.60042,-60.3094 z m 152.66278,0.01 71.97923,70.58541 a 212.48482,212.48482 0 0 1 -145.60041,60.30908 l 1.03246,-105.37437 c 28.65634,-0.84928 52.95431,-11.37039 72.58872,-25.52012 z" />
</svg>
